<svg xmlns="http://www.w3.org/2000/svg" width="100%" height="100%" viewBox="0 0 512 512">
  <path fill="currentColor" d="M255.97 5.33C114.62 5.33 0 120.4 0 262.35 0 375.9 73.34 472.21 175.1 506.23c12.8 2.36 17.48-5.57 17.48-12.39 0-6.11-.23-22.27-.36-43.71-71.2 15.52-86.24-34.46-86.24-34.46-11.61-29.7-28.41-37.6-28.41-37.6-23.27-15.94 1.73-15.62 1.73-15.62 25.7 1.82 39.2 26.5 39.2 26.5 22.84 39.26 59.93 27.93 74.52 21.34 2.3-16.6 8.93-27.94 16.26-34.37-56.83-6.5-116.6-28.54-116.6-127 0-28.07 9.98-51.01 26.36-69-2.66-6.5-11.42-32.64 2.5-68 0 0 21.5-6.91 70.4 26.34 20.41-5.7 42.3-8.55 64.1-8.64 21.72.13 43.64 2.94 64.09 8.67 48.86-33.25 70.33-26.34 70.33-26.34 13.96 35.4 5.19 61.5 2.56 68 16.42 17.99 26.3 40.93 26.3 69 0 98.72-59.83 120.44-116.86 126.81 9.19 7.94 17.38 23.62 17.38 47.59 0 34.36-.32 62.08-.32 70.5 0 6.87 4.6 14.87 17.6 12.34C438.72 472.14 512 375.86 512 262.35 512 120.4 397.38 5.33 255.97 5.33z"/>
</svg>
