<svg xmlns="http://www.w3.org/2000/svg" width="100%" height="100%" viewBox="0 0 512 512">
  <path fill="currentColor" d="M432 240c-5.7 0-11.3.6-16.67 1.76C408.13 169.02 346.59 112 272 112a16 16 0 0 0-16 16v256a16 16 0 0 0 16 16h160c44.13 0 80-35.87 80-80 0-44.1-35.87-80-80-80zM208 144a16 16 0 0 0-16 16v224a16 16 0 0 0 32 0V160a16 16 0 0 0-16-16zM144 208a16 16 0 0 0-16 16v160a16 16 0 0 0 32 0V224a16 16 0 0 0-16-16zM80 208a16 16 0 0 0-16 16v160a16 16 0 0 0 32 0V224a16 16 0 0 0-16-16zM16 256a16 16 0 0 0-16 16v96a16 16 0 0 0 32 0v-96a16 16 0 0 0-16-16z"/>
</svg>
